<?xml version="1.0" encoding="UTF-8"?>
<svg version="1.1" xmlns="http://www.w3.org/2000/svg" width="1000" height="1000">
<path d="M0 0 C13.53 0 27.06 0 41 0 C41 154.44 41 308.88 41 468 C36.50346063 468.89930787 32.4327392 469.14529391 27.890625 469.1328125 C27.12320984 469.13376923 26.35579468 469.13472595 25.56512451 469.13571167 C23.95145587 469.1363896 22.33778444 469.13456243 20.72412109 469.13037109 C18.24440478 469.12498785 15.76486718 469.13034417 13.28515625 469.13671875 C11.71614543 469.13605848 10.14713473 469.13477837 8.578125 469.1328125 C7.46102142 469.13584885 7.46102142 469.13584885 6.3213501 469.13894653 C1.1149713 469.1149713 1.1149713 469.1149713 0 468 C-0.09881796 465.51358584 -0.13177962 463.05494854 -0.12304783 460.56802273 C-0.12420167 459.77671 -0.12535552 458.98539727 -0.12654433 458.17010537 C-0.12921834 455.48426833 -0.12468243 452.79848971 -0.12025452 450.11265564 C-0.12069006 448.18138587 -0.12156465 446.25011616 -0.12284368 444.31884676 C-0.12509199 438.9851621 -0.1210628 433.65149731 -0.11606562 428.31781518 C-0.11176609 422.5761295 -0.11320719 416.83444502 -0.1139679 411.09275818 C-0.11449345 401.13602874 -0.1113434 391.17930584 -0.10573006 381.22257805 C-0.09761927 366.82663961 -0.09500027 352.43070435 -0.09374207 338.03476388 C-0.09155088 314.68097035 -0.08489756 291.32718031 -0.07543945 267.97338867 C-0.0662598 245.28100604 -0.05917385 222.58862435 -0.05493164 199.89624023 C-0.05480011 199.19715359 -0.05466859 198.49806695 -0.05453308 197.77779587 C-0.05321459 190.75748433 -0.05193877 183.73717279 -0.05069422 176.71686124 C-0.04815779 162.41480218 -0.04533653 148.11274318 -0.04234314 133.8106842 C-0.04206841 132.49705295 -0.04179369 131.18342169 -0.04151063 129.82998342 C-0.03233496 86.55332085 -0.01639686 43.27666034 0 0 Z " fill="#F4F4F4" transform="translate(444,407)"/>
<path d="M0 0 C7.59 0 15.18 0 23 0 C23 159.72 23 319.44 23 484 C9.8 484 -3.4 484 -17 484 C-17 331.54 -17 179.08 -17 22 C-11.39 22 -5.78 22 0 22 C0 14.74 0 7.48 0 0 Z " fill="#FEFEFE" transform="translate(417,407)"/>
<path d="M0 0 C7.59 0 15.18 0 23 0 C23 152.46 23 304.92 23 462 C9.47 462 -4.06 462 -18 462 C-18 314.82 -18 167.64 -18 16 C-12.06 16 -6.12 16 0 16 C0 10.72 0 5.44 0 0 Z " fill="#FBFBFB" transform="translate(373,429)"/>
<path d="M0 0 C13.2 0 26.4 0 40 0 C40 147.18 40 294.36 40 446 C34.39 446 28.78 446 23 446 C23 453.59 23 461.18 23 469 C17.5859375 469.0309375 17.5859375 469.0309375 12.0625 469.0625 C10.92304932 469.071604 9.78359863 469.08070801 8.60961914 469.09008789 C7.71879639 469.09258545 6.82797363 469.09508301 5.91015625 469.09765625 C4.53549194 469.10551147 4.53549194 469.10551147 3.13305664 469.11352539 C1 469 1 469 0 468 C-0.09881796 465.51358584 -0.13177962 463.05494854 -0.12304783 460.56802273 C-0.12420167 459.77671 -0.12535552 458.98539727 -0.12654433 458.17010537 C-0.12921834 455.48426833 -0.12468243 452.79848971 -0.12025452 450.11265564 C-0.12069006 448.18138587 -0.12156465 446.25011616 -0.12284368 444.31884676 C-0.12509199 438.9851621 -0.1210628 433.65149731 -0.11606562 428.31781518 C-0.11176609 422.5761295 -0.11320719 416.83444502 -0.1139679 411.09275818 C-0.11449345 401.13602874 -0.1113434 391.17930584 -0.10573006 381.22257805 C-0.09761927 366.82663961 -0.09500027 352.43070435 -0.09374207 338.03476388 C-0.09155088 314.68097035 -0.08489756 291.32718031 -0.07543945 267.97338867 C-0.0662598 245.28100604 -0.05917385 222.58862435 -0.05493164 199.89624023 C-0.05480011 199.19715359 -0.05466859 198.49806695 -0.05453308 197.77779587 C-0.05321459 190.75748433 -0.05193877 183.73717279 -0.05069422 176.71686124 C-0.04815779 162.41480218 -0.04533653 148.11274318 -0.04234314 133.8106842 C-0.04206841 132.49705295 -0.04179369 131.18342169 -0.04151063 129.82998342 C-0.03233496 86.55332085 -0.01639686 43.27666034 0 0 Z " fill="#FCFCFC" transform="translate(489,407)"/>
<path d="M0 0 C13.53 0 27.06 0 41 0 C41 141.9 41 283.8 41 430 C27.47 430 13.94 430 0 430 C0 288.1 0 146.2 0 0 Z " fill="#FAFAFA" transform="translate(533,407)"/>
<path d="M0 0 C7.26 0 14.52 0 22 0 C22 141.9 22 283.8 22 430 C14.41 430 6.82 430 -1 430 C-1.495 422.575 -1.495 422.575 -2 415 C-7.28 415 -12.56 415 -18 415 C-18 283.66 -18 152.32 -18 17 C-12.39 17 -6.78 17 -1 17 C-1.03957157 11.77936725 -1.03957157 11.77936725 -1.09008789 6.55883789 C-1.09723945 4.70566241 -1.0502852 2.85250692 -1 1 C-0.67 0.67 -0.34 0.34 0 0 Z " fill="#FEFEFE" transform="translate(329,461)"/>
<path d="M0 0 C13.2 0 26.4 0 40 0 C40 124.08 40 248.16 40 376 C26.8 376 13.6 376 0 376 C0 251.92 0 127.84 0 0 Z " fill="#FEFEFE" transform="translate(578,429)"/>
<path d="M0 0 C13.2 0 26.4 0 40 0 C40 116.82 40 233.64 40 354 C26.8 354 13.6 354 0 354 C0 237.18 0 120.36 0 0 Z " fill="#FDFDFD" transform="translate(622,429)"/>
<path d="M0 0 C7.92 0 15.84 0 24 0 C24 5.28 24 10.56 24 16 C29.22063275 15.96042843 29.22063275 15.96042843 34.44116211 15.90991211 C36.29433759 15.90276055 38.14749308 15.9497148 40 16 C41 17 41 17 41.1241985 19.18245989 C41.12381878 20.15720198 41.12343906 21.13194407 41.12304783 22.13622379 C41.12503888 23.25638482 41.12702993 24.37654585 41.12908131 25.53065115 C41.12616847 26.77673271 41.12325563 28.02281428 41.12025452 29.30665588 C41.12110894 30.61833062 41.12196337 31.93000535 41.12284368 33.2814278 C41.12509112 36.93908454 41.12106398 40.59671228 41.11606562 44.25436532 C41.11176485 48.19235319 41.11320728 52.1303393 41.1139679 56.06832886 C41.11449337 62.89676364 41.11134414 69.7251889 41.10573006 76.55362129 C41.09761821 86.42650369 41.09500016 96.29938146 41.09374207 106.17226683 C41.09155105 122.18865902 41.08488962 138.20504612 41.07543945 154.22143555 C41.06626662 169.78393529 41.05918516 185.34643365 41.05493164 200.90893555 C41.05466892 201.8674984 41.05440619 202.82606126 41.05413551 203.81367148 C41.05283051 208.62228771 41.0515668 213.43090395 41.05032361 218.23952019 C41.03994945 258.15968386 41.02205542 298.0798412 41 338 C27.47 338 13.94 338 0 338 C0 226.46 0 114.92 0 0 Z " fill="#F3F3F3" transform="translate(666,445)"/>
<path d="M0 0 C7.26 0 14.52 0 22 0 C23 1 23 1 23.1241985 3.426117 C23.12381878 4.51629407 23.12343906 5.60647114 23.12304783 6.72968388 C23.12503888 7.98221394 23.12702993 9.234744 23.12908131 10.52522951 C23.12622771 11.93324747 23.12328211 13.34126524 23.12025452 14.74928284 C23.12069009 16.23094941 23.12156473 17.71261591 23.12284368 19.194282 C23.12509141 23.28519739 23.12106358 27.37608685 23.11606562 31.46699893 C23.11176527 35.87124882 23.11320725 40.27549714 23.1139679 44.67974854 C23.1144934 52.31685803 23.11134389 59.95395901 23.10573006 67.59106636 C23.09761857 78.63317412 23.0950002 89.67527773 23.09374207 100.71738815 C23.09155099 118.63052347 23.08488941 136.54365425 23.07543945 154.45678711 C23.06626676 171.86238584 23.05918523 189.26798333 23.05493164 206.67358398 C23.05466892 207.74565267 23.05440619 208.81772136 23.05413551 209.92227698 C23.05283051 215.30028792 23.0515668 220.67829887 23.05032361 226.05630982 C23.03994927 270.70420969 23.02232945 315.35210461 23 360 C19.78934268 360.67021566 16.85656341 361.12127024 13.57421875 361.09765625 C12.85580811 361.09515869 12.13739746 361.09266113 11.3972168 361.09008789 C10.05590698 361.07643188 10.05590698 361.07643188 8.6875 361.0625 C4.3871875 361.0315625 4.3871875 361.0315625 0 361 C0 353.41 0 345.82 0 338 C-5.61 338 -11.22 338 -17 338 C-17 260.78 -17 183.56 -17 104 C-11.39 104 -5.78 104 0 104 C0 69.68 0 35.36 0 0 Z " fill="#FBFBFB" transform="translate(284,515)"/>
<path d="M0 0 C13.2 0 26.4 0 40 0 C40 100.65 40 201.3 40 305 C26.8 305 13.6 305 0 305 C0 204.35 0 103.7 0 0 Z " fill="#FEFEFE" transform="translate(711,478)"/>
<path d="M0 0 C13.2 0 26.4 0 40 0 C40 95.37 40 190.74 40 289 C32.41 289 24.82 289 17 289 C17 283.72 17 278.44 17 273 C11.39 273 5.78 273 0 273 C0 182.91 0 92.82 0 0 Z " fill="#FBFBFB" transform="translate(267,109)"/>
<path d="M0 0 C13.53 0 27.06 0 41 0 C41.02258441 33.86980518 41.04049772 67.73960755 41.05106533 101.60941857 C41.05231611 105.60378882 41.05361042 109.59815906 41.05493164 113.5925293 C41.05519395 114.38777052 41.05545626 115.18301173 41.05572652 116.00235117 C41.06008341 128.89593172 41.06797106 141.78950782 41.0771528 154.68308573 C41.08648881 167.90310535 41.0920555 181.12312265 41.09408849 194.34314543 C41.09546383 202.50725935 41.099815 210.67136074 41.10791647 218.8354708 C41.11380392 225.08501907 41.1144591 231.33455769 41.11310768 237.58410835 C41.11338422 240.155718 41.11539208 242.7273281 41.11920547 245.29893494 C41.12413547 248.7930935 41.12300086 252.28719714 41.12025452 255.78135681 C41.12316736 256.81343622 41.1260802 257.84551562 41.12908131 258.90887016 C41.12709026 259.83744443 41.12509921 260.7660187 41.12304783 261.72273159 C41.12361741 262.9342293 41.12361741 262.9342293 41.1241985 264.17020172 C41 266 41 266 40 267 C26.8 267 13.6 267 0 267 C0 178.89 0 90.78 0 0 Z " fill="#FAFAFA" transform="translate(755,500)"/>
<path d="M0 0 C13.2 0 26.4 0 40 0 C40 90.09 40 180.18 40 273 C26.8 273 13.6 273 0 273 C0 182.91 0 92.82 0 0 Z " fill="#FDFDFD" transform="translate(622,125)"/>
<path d="M0 0 C13.2 0 26.4 0 40 0 C40 90.09 40 180.18 40 273 C26.8 273 13.6 273 0 273 C0 182.91 0 92.82 0 0 Z " fill="#FEFEFE" transform="translate(311,125)"/>
<path d="M0 0 C7.59 0 15.18 0 23 0 C23 7.26 23 14.52 23 22 C28.94 22 34.88 22 41 22 C41 99.55 41 177.1 41 257 C35.06 257 29.12 257 23 257 C23 262.28 23 267.56 23 273 C15.41 273 7.82 273 0 273 C0 182.91 0 92.82 0 0 Z " fill="#FBFBFB" transform="translate(355,125)"/>
<path d="M0 0 C13.2 0 26.4 0 40 0 C40 82.5 40 165 40 250 C26.8 250 13.6 250 0 250 C0 167.5 0 85 0 0 Z " fill="#FFFFFF" transform="translate(89,359)"/>
<path d="M0 0 C13.2 0 26.4 0 40 0 C40 84.81 40 169.62 40 257 C32.41 257 24.82 257 17 257 C17 249.74 17 242.48 17 235 C11.39 235 5.78 235 0 235 C0 157.45 0 79.9 0 0 Z " fill="#FEFEFE" transform="translate(578,125)"/>
<path d="M0 0 C7.26 0 14.52 0 22 0 C23.7213061 5.16391829 23.05353552 10.59291236 23 16 C28.61 16.33 34.22 16.66 40 17 C40 94.55 40 172.1 40 252 C26.8 252 13.6 252 0 252 C0 168.84 0 85.68 0 0 Z " fill="#FDFDFD" transform="translate(800,515)"/>
<path d="M0 0 C7.59 0 15.18 0 23 0 C24.12500649 7.87504542 24.12500649 7.87504542 24.12584114 11.7104454 C24.12844889 12.58293135 24.13105664 13.4554173 24.13374341 14.35434222 C24.13151268 15.2929702 24.12928196 16.23159818 24.12698364 17.19866943 C24.12854363 18.21117114 24.13010362 19.22367285 24.13171089 20.26685643 C24.13569205 23.65155201 24.13254244 27.03620255 24.12939453 30.42089844 C24.13074981 32.85053026 24.13253046 35.28016187 24.13470459 37.70979309 C24.1387897 43.61809412 24.13819384 49.52638349 24.13529195 55.43468419 C24.13303185 60.23521746 24.13272802 65.03574717 24.13381577 69.83628082 C24.133969 70.51998045 24.13412223 71.20368008 24.13428011 71.90809788 C24.13459984 73.29704895 24.13492405 74.68600002 24.1352527 76.07495108 C24.1381021 89.08900883 24.13482847 102.10305953 24.12945233 115.11711612 C24.12498077 126.2875536 24.12576417 137.45798068 24.13037109 148.62841797 C24.13571946 161.60270936 24.13783169 174.57699459 24.13475883 187.55128694 C24.13444028 188.93385204 24.13412591 190.31641714 24.13381577 191.69898224 C24.13358435 192.71935452 24.13358435 192.71935452 24.13334826 193.76034038 C24.1324842 198.55801966 24.13394353 203.35569504 24.13629532 208.15337372 C24.1393883 214.60477944 24.13719476 221.05617011 24.13140106 227.50757408 C24.13007473 229.88000391 24.13046545 232.25243539 24.13266373 234.62486458 C24.13538002 237.85302076 24.13198819 241.08111307 24.12698364 244.30926514 C24.12921436 245.256816 24.13144509 246.20436687 24.13374341 247.1806314 C24.12983178 248.47371384 24.12983178 248.47371384 24.12584114 249.79291916 C24.12567879 250.53831286 24.12551644 251.28370656 24.12534916 252.05168796 C24 254 24 254 23 257 C15.41 257 7.82 257 0 257 C0 249.74 0 242.48 0 235 C-5.61 235 -11.22 235 -17 235 C-17 164.71 -17 94.42 -17 22 C-11.39 22 -5.78 22 0 22 C0 14.74 0 7.48 0 0 Z " fill="#F7F7F7" transform="translate(239,125)"/>
<path d="M0 0 C0.82290527 0.00202423 1.64581055 0.00404846 2.49365234 0.00613403 C3.33331543 0.00517731 4.17297852 0.00422058 5.03808594 0.00323486 C6.81689529 0.00255306 8.59570712 0.00440737 10.37451172 0.00857544 C13.10699011 0.01392371 15.83930411 0.00863048 18.57177734 0.00222778 C20.29573604 0.00288856 22.01969464 0.00416973 23.74365234 0.00613403 C24.56655762 0.0041098 25.38946289 0.00208557 26.23730469 0 C32.0037018 0.02399599 32.0037018 0.02399599 33.11865234 1.13894653 C33.21665959 4.14772442 33.24856484 7.13355872 33.23890686 10.14274597 C33.23976129 11.09915165 33.24061571 12.05555733 33.24149603 13.04094499 C33.24315374 16.27162879 33.2376247 19.50226159 33.23217773 22.73294067 C33.2318959 25.03847757 33.23205352 27.34401455 33.23262024 29.64955139 C33.23290836 35.9302914 33.22700932 42.2110125 33.22004628 48.49174809 C33.21381512 55.04744068 33.21320913 61.60313365 33.21202087 68.15882874 C33.20942776 79.16921315 33.20300557 90.17959091 33.1940918 101.18997192 C33.18491845 112.53274501 33.17783724 123.8755162 33.17358398 135.21829224 C33.17332126 135.91698648 33.17305854 136.61568072 33.17278785 137.33554751 C33.17148285 140.84054954 33.17021914 144.34555158 33.16897595 147.85055363 C33.15860241 176.94668926 33.14070885 206.04281748 33.11865234 235.13894653 C19.91865234 235.13894653 6.71865234 235.13894653 -6.88134766 235.13894653 C-6.90393257 205.34575315 -6.92184565 175.5525607 -6.93241299 145.75936062 C-6.93366376 142.24567114 -6.93495808 138.73198168 -6.9362793 135.21829224 C-6.93654161 134.51875069 -6.93680392 133.81920914 -6.93707418 133.09846937 C-6.94143094 121.75685485 -6.94931852 110.41524538 -6.95850045 99.07363386 C-6.96783682 87.44467162 -6.97332833 75.81571234 -6.97543615 64.18674654 C-6.9767437 57.6513335 -6.97983233 51.11593192 -6.98707771 44.58052254 C-6.99383384 38.43700806 -6.99596545 32.29350983 -6.99445534 26.14999199 C-6.99473185 23.88799323 -6.99673937 21.62599397 -7.00055313 19.36399841 C-7.00548402 16.29022722 -7.00434819 13.21651843 -7.00160217 10.14274597 C-7.00451501 9.23517691 -7.00742786 8.32760785 -7.01042897 7.3925367 C-6.99248641 0.02909817 -6.99248641 0.02909817 0 0 Z " fill="#FBFBFB" transform="translate(139.88134765625,373.8610534667969)"/>
<path d="M0 0 C13.2 0 26.4 0 40 0 C40 77.22 40 154.44 40 234 C26.8 234 13.6 234 0 234 C0 156.78 0 79.56 0 0 Z " fill="#FBFBFB" transform="translate(45,359)"/>
<path d="M0 0 C7.92 0 15.84 0 24 0 C24 5.28 24 10.56 24 16 C29.61 16 35.22 16 41 16 C41 81.01 41 146.02 41 213 C35.39 213 29.78 213 24 213 C24 220.26 24 227.52 24 235 C16.08 235 8.16 235 0 235 C0 157.45 0 79.9 0 0 Z " fill="#F2F2F2" transform="translate(666,147)"/>
<path d="M0 0 C7.59 0 15.18 0 23 0 C23 5.28 23 10.56 23 16 C28.61 16 34.22 16 40 16 C40 82.66 40 149.32 40 218 C34.39 218 28.78 218 23 218 C23 223.61 23 229.22 23 235 C15.41 235 7.82 235 0 235 C0 157.45 0 79.9 0 0 Z " fill="#FCFCFC" transform="translate(844,532)"/>
<path d="M0 0 C7.92 0 15.84 0 24 0 C24 71.94 24 143.88 24 218 C20.79012584 218.80246854 18.66366478 219.11934909 15.453125 219.09765625 C14.60878906 219.09443359 13.76445313 219.09121094 12.89453125 219.08789062 C12.02183594 219.07951172 11.14914062 219.07113281 10.25 219.0625 C9.36183594 219.05798828 8.47367188 219.05347656 7.55859375 219.04882812 C5.37232671 219.037074 3.18619821 219.02064249 1 219 C-0.80878388 213.57364835 -0.05200784 207.66885438 0 202 C-5.61 202 -11.22 202 -17 202 C-17 142.6 -17 83.2 -17 22 C-11.39 22 -5.78 22 0 22 C0 14.74 0 7.48 0 0 Z " fill="#F8F8F8" transform="translate(550,125)"/>
<path d="M0 0 C13.2 0 26.4 0 40 0 C40 66.66 40 133.32 40 202 C26.8 202 13.6 202 0 202 C0 135.34 0 68.68 0 0 Z " fill="#FDFDFD" transform="translate(844,266)"/>
<path d="M0 0 C7.59 0 15.18 0 23 0 C23 69.96 23 139.92 23 212 C15.41 212 7.82 212 0 212 C0 201.44 0 190.88 0 180 C-5.61 180 -11.22 180 -17 180 C-17 131.16 -17 82.32 -17 32 C-11.39 32 -5.78 32 0 32 C0 21.44 0 10.88 0 0 Z " fill="#FDFDFD" transform="translate(17,359)"/>
<path d="M0 0 C13.2 0 26.4 0 40 0 C40 59.4 40 118.8 40 180 C26.47 180 12.94 180 -1 180 C-1.02254485 156.67856862 -1.0409779 133.35714602 -1.05181217 110.03570652 C-1.05697568 99.2079638 -1.06401942 88.38022831 -1.07543945 77.55249023 C-1.08538462 68.11865593 -1.09185303 58.68482687 -1.09408849 49.25098747 C-1.09539589 44.25258514 -1.09848353 39.25419779 -1.10573006 34.25580025 C-1.11248764 29.5568499 -1.1146175 24.85792081 -1.11310768 20.15896606 C-1.11338413 18.42911094 -1.1153908 16.69925516 -1.11920547 14.96940422 C-1.12413864 12.61817177 -1.1229997 10.26702085 -1.12025452 7.91578674 C-1.12117631 6.59670098 -1.1220981 5.27761522 -1.12304783 3.91855717 C-1 1 -1 1 0 0 Z " fill="#F2F2F2" transform="translate(889,288)"/>
<path d="M0 0 C7.92 0 15.84 0 24 0 C24 12.54 24 25.08 24 38 C29.61 38 35.22 38 41 38 C41 79.58 41 121.16 41 164 C35.39 164 29.78 164 24 164 C24 176.54 24 189.08 24 202 C16.08 202 8.16 202 0 202 C0 135.34 0 68.68 0 0 Z " fill="#F1F1F1" transform="translate(888,548)"/>
<path d="M0 0 C7.59 0 15.18 0 23 0 C23 7.26 23 14.52 23 22 C28.61 22 34.22 22 40 22 C40 68.86 40 115.72 40 164 C34.39 164 28.78 164 23 164 C23 171.26 23 178.52 23 186 C15.41 186 7.82 186 0 186 C-0.72751523 180.9073934 -1.12550702 176.52867913 -1.12698364 171.45207214 C-1.12854363 170.72471353 -1.13010362 169.99735492 -1.13171089 169.24795514 C-1.13567662 166.82828693 -1.13254857 164.40868227 -1.12939453 161.98901367 C-1.13075048 160.24740563 -1.1325315 158.50579788 -1.13470459 156.76419067 C-1.13925421 152.047672 -1.13749997 147.33117526 -1.1343255 142.61465621 C-1.13179116 137.67883861 -1.13414225 132.74302287 -1.13571167 127.8072052 C-1.13752937 119.52454288 -1.13513663 111.24188948 -1.13037109 102.95922852 C-1.12492026 93.37462278 -1.12669869 83.7900383 -1.1321975 74.20543307 C-1.1367293 65.9777261 -1.13737912 57.75002553 -1.13475883 49.52231771 C-1.13319758 44.6072688 -1.13299833 39.6922299 -1.13629532 34.77718163 C-1.1391753 30.16184997 -1.13719599 25.54654586 -1.13140106 20.93121719 C-1.13007454 19.23402896 -1.13046577 17.53683843 -1.13266373 15.83965111 C-1.13537919 13.53073891 -1.13198931 11.22191608 -1.12698364 8.91300964 C-1.12660662 7.61868609 -1.12622959 6.32436255 -1.12584114 4.99081707 C-1 2 -1 2 0 0 Z " fill="#FAFAFA" transform="translate(178,407)"/>
<path d="M0 0 C13.2 0 26.4 0 40 0 C40 54.12 40 108.24 40 164 C32.41 164 24.82 164 17 164 C17 156.74 17 149.48 17 142 C11.39 142 5.78 142 0 142 C0 95.14 0 48.28 0 0 Z " fill="#FEFEFE" transform="translate(800,288)"/>
<path d="M0 0 C7.59 0 15.18 0 23 0 C23 5.28 23 10.56 23 16 C28.61 16 34.22 16 40 16 C40 59.56 40 103.12 40 148 C34.39 148 28.78 148 23 148 C23 153.28 23 158.56 23 164 C15.41 164 7.82 164 0 164 C0 109.88 0 55.76 0 0 Z " fill="#FEFEFE" transform="translate(933,304)"/>
<path d="M0 0 C7.59 0 15.18 0 23 0 C23 12.87 23 25.74 23 39 C28.61 39 34.22 39 40 39 C40 69.69 40 100.38 40 132 C34.39 132 28.78 132 23 132 C23 148.17 23 164.34 23 181 C15.41 181 7.82 181 0 181 C0 121.27 0 61.54 0 0 Z " fill="#FBFBFB" transform="translate(400,179)"/>
<path d="M0 0 C7.59 0 15.18 0 23 0 C23.82025618 4.1012809 24.12561093 7.33281396 24.12698364 11.45875549 C24.12980347 12.76404205 24.13262329 14.06932861 24.13552856 15.41416931 C24.13358443 16.85366835 24.13153627 18.29316726 24.12939453 19.73266602 C24.13075007 21.25398806 24.13253087 22.77530977 24.13470459 24.29663086 C24.1392603 28.42251302 24.13749711 32.54837015 24.1343255 36.67425275 C24.13179276 40.99254756 24.13414195 45.31084024 24.13571167 49.62913513 C24.13753049 56.87963241 24.13513437 64.1301195 24.13037109 71.38061523 C24.12492698 79.76430978 24.12669337 88.14798001 24.1321975 96.53167397 C24.13673435 103.73008131 24.13737643 110.92848133 24.13475883 118.12688965 C24.13319948 122.42610983 24.13299301 126.72531859 24.13629532 131.02453804 C24.13918239 135.06530776 24.13718291 139.10604611 24.13140106 143.14681244 C24.13007805 144.63030126 24.13045982 146.11379273 24.13266373 147.5972805 C24.13539311 149.62092876 24.13136481 151.64458279 24.12698364 153.66822815 C24.12660662 154.80107018 24.12622959 155.93391222 24.12584114 157.1010828 C24 160 24 160 23 164 C15.41 164 7.82 164 0 164 C0 109.88 0 55.76 0 0 Z " fill="#F5F5F5" transform="translate(239,673)"/>
<path d="M0 0 C7.59 0 15.18 0 23 0 C23 48.84 23 97.68 23 148 C15.41 148 7.82 148 0 148 C0 99.16 0 50.32 0 0 Z " fill="#FDFDFD" transform="translate(711,179)"/>
<path d="M0 0 C7.59 0 15.18 0 23 0 C23 48.84 23 97.68 23 148 C15.41 148 7.82 148 0 148 C0 99.16 0 50.32 0 0 Z " fill="#FEFEFE" transform="translate(195,179)"/>
<path d="M0 0 C7.92 0 15.84 0 24 0 C24 36.3 24 72.6 24 110 C16.08 110 8.16 110 0 110 C0 73.7 0 37.4 0 0 Z " fill="#EFEFEF" transform="translate(772,304)"/>
<path d="M0 0 C7.59 0 15.18 0 23 0 C23 36.3 23 72.6 23 110 C15.41 110 7.82 110 0 110 C0 73.7 0 37.4 0 0 Z " fill="#F7F7F7" transform="translate(506,179)"/>
<path d="M0 0 C7.26 0 14.52 0 22 0 C22 23.43 22 46.86 22 71 C14.74 71 7.48 71 0 71 C0 47.57 0 24.14 0 0 Z " fill="#FFFFFF" transform="translate(978,359)"/>
<path d="M0 0 C7.59 0 15.18 0 23 0 C23 14.85 23 29.7 23 45 C15.41 45 7.82 45 0 45 C0 30.15 0 15.3 0 0 Z " fill="#FEFEFE" transform="translate(933,619)"/>
<path d="M0 0 C7.59 0 15.18 0 23 0 C23 7.59 23 15.18 23 23 C15.41 23 7.82 23 0 23 C0 15.41 0 7.82 0 0 Z " fill="#F5F5F5" transform="translate(222,500)"/>
</svg>
